<?xml version="1.0" standalone="no"?>
<!DOCTYPE svg PUBLIC "-//W3C//DTD SVG 1.1//EN" "http://www.w3.org/Graphics/SVG/1.1/DTD/svg11.dtd" >
<!--
2013-9-30: Created.
-->
<svg>
<metadata>
Created by iconfont
</metadata>
<defs>

<font id="iconfont" horiz-adv-x="1024" >
  <font-face
    font-family="iconfont"
    font-weight="500"
    font-stretch="normal"
    units-per-em="1024"
    ascent="896"
    descent="-128"
  />
    <missing-glyph />
    
    <glyph glyph-name="x" unicode="x" horiz-adv-x="1001"
d="M281 543q-27 -1 -53 -1h-83q-18 0 -36.5 -6t-32.5 -18.5t-23 -32t-9 -45.5v-76h912v41q0 16 -0.5 30t-0.5 18q0 13 -5 29t-17 29.5t-31.5 22.5t-49.5 9h-133v-97h-438v97zM955 310v-52q0 -23 0.5 -52t0.5 -58t-10.5 -47.5t-26 -30t-33 -16t-31.5 -4.5q-14 -1 -29.5 -0.5
t-29.5 0.5h-32l-45 128h-439l-44 -128h-29h-34q-20 0 -45 1q-25 0 -41 9.5t-25.5 23t-13.5 29.5t-4 30v167h911zM163 247q-12 0 -21 -8.5t-9 -21.5t9 -21.5t21 -8.5q13 0 22 8.5t9 21.5t-9 21.5t-22 8.5zM316 123q-8 -26 -14 -48q-5 -19 -10.5 -37t-7.5 -25t-3 -15t1 -14.5
t9.5 -10.5t21.5 -4h37h67h81h80h64h36q23 0 34 12t2 38q-5 13 -9.5 30.5t-9.5 34.5q-5 19 -11 39h-368zM336 498v228q0 11 2.5 23t10 21.5t20.5 15.5t34 6h188q31 0 51.5 -14.5t20.5 -52.5v-227h-327z" />
    

    
    <glyph glyph-name="sousuo" unicode="&#58882;" d="M941.2204-54.4087 729.1415 162.2494c-3.5038 3.5796-7.5302 6.2927-11.8265 8.1565 45.562 61.1346 72.6167 137.4528 72.6167 220.2407 0 200.9657-159.4115 363.8363-356.0642 363.8363C237.2159 754.4829 77.8104 591.6113 77.8104 390.6465c0-200.9697 159.4055-363.8373 356.0582-363.8373 90.2555 0 172.664 34.3107 235.419 90.8634 1.7369-3.4746 4.0194-6.7354 6.8626-9.6405l212.0269-216.6571c14.6197-14.9419 38.3716-14.9419 53.0432 0C955.8401-93.6831 955.8401-69.3496 941.2204-54.4087zM433.8686 84.2283c-165.5905 0-299.865 137.2-299.865 306.4182 0 169.2702 134.2735 306.4123 299.865 306.4123 165.5965 0 299.865-137.142 299.865-306.4123C733.7336 221.4283 599.4641 84.2283 433.8686 84.2283z"  horiz-adv-x="1000" />

    
    <glyph glyph-name="daojishi" unicode="&#58960;" d="M511.781 310.156c-17.433 0-31.565 11.864-31.565 26.5v203.85c0 14.636 14.133 26.501 31.565 26.501v0c17.432 0 31.565-11.864 31.565-26.501v-203.85c0-14.635-14.133-26.5-31.565-26.5v0zM495.162 351.756c11.058 13.478 29.193 16.878 40.509 7.595l180.54-148.119c11.316-9.282 11.524-27.735 0.467-41.212v0c-11.057-13.477-29.193-16.877-40.509-7.594l-180.54 148.119c-11.316 9.283-11.523 27.733-0.467 41.211v0zM543.393 709.327v59.922h70.36c14.636 0 26.5 14.133 26.5 31.565s-11.864 31.565-26.5 31.565h-203.85c-14.636 0-26.501-14.133-26.501-31.565s11.864-31.565 26.501-31.565h70.359v-59.914c-191.531-16.005-341.99-176.522-341.99-372.189 0-206.282 167.225-373.507 373.507-373.507s373.507 167.225 373.507 373.507c0 195.633-150.408 356.131-341.894 372.181zM511.781 16.711c-176.971 0-320.435 143.463-320.435 320.436 0 176.971 143.463 320.435 320.435 320.435 176.972 0 320.436-143.463 320.436-320.435 0-176.973-143.464-320.436-320.436-320.436z"  horiz-adv-x="1024" />

    
    <glyph glyph-name="jiantou" unicode="&#58932;" d="M385.628 832.185l455.941-446.71-455.941-446.709-35.439 34.694 420.652 412.015-420.652 412.016z"  horiz-adv-x="1024" />

    
    <glyph glyph-name="androidcancel" unicode="&#58933;" d="M512 800c-230.882 0-416-185.118-416-416 0-230.872 185.118-416 416-416 230.87 0 416 185.128 416 416 0 230.882-185.128 416-416 416zM720.004 234.238l-58.24-58.234-149.764 149.762-149.762-149.762-58.242 58.234 149.766 149.762-149.766 149.762 58.242 58.232 149.762-149.756 149.762 149.756 58.24-58.232-149.764-149.762 149.766-149.762z"  horiz-adv-x="1024" />

    
    <glyph glyph-name="jiantou1" unicode="&#58931;" d="M273.24 384.138l431.297 431.297 34.419-34.419-431.297-431.297-34.419 34.419zM704.539-46.267l-431.298 431.298 34.419 34.419 431.298-431.298-34.419-34.419z"  horiz-adv-x="1024" />

    
    <glyph glyph-name="chexiao" unicode="&#58948;" d="M785.596 637.388c-118.909 118.889-293.345 147.686-438.314 86.538l-35.84 61.21c-8.547 14.608-18.516 20.062-34.962 24.095-17.178 4.242-36.279-9.112-44.659-23.615l-99.85-202.585c-8.359-14.503-10.533-32.329-1.985-46.937s25.286-21.671 42.214-21.755l211.571 11.766c16.927-0.104 31.284 8.088 39.643 22.57 8.38 14.503 8.276 31.034-0.272 45.662l-32.789 56.027c112.41 43.071 244.924 19.143 336.123-72.056 123.402-123.402 124.197-322.685 1.797-445.106s-321.703-121.626-445.106 1.797c-29.466 29.466-51.743 63.321-67.208 99.37 0 0 2.487 24.471-22.403 49.34-16.447 16.447-43.029 16.551-59.35 0.23-27.857-27.836-4.598-57.887-4.598-57.887 19.393-54.732 50.573-106.308 94.459-150.194 156.296-156.296 408.743-157.32 563.806-2.257s154.039 407.489-2.278 563.785z"  horiz-adv-x="1024" />

    
    <glyph glyph-name="xiaosanjiaodown" unicode="&#58936;" d="M735.136 362.722l-223.136-230.72-223.136 230.72z"  horiz-adv-x="1024" />

    
    <glyph glyph-name="huanyihuan" unicode="&#58935;" d="M162.944 487.040h3.008c43.904 153.728 183.040 266.368 347.776 266.368 164.16 0 302.976-112.064 347.328-265.088l0.576 0.192c3.648-8.064 11.456-13.76 20.544-13.76 12.608 0 22.784 10.752 22.784 23.936 0 2.432-0.512 4.736-1.152 6.912v0c-0.064 0.064-0.128 0.192-0.128 0.32-0.192 0.832-0.384 1.472-0.704 2.304-51.776 169.024-206.464 291.776-389.376 291.776-186.176 0-343.104-127.232-392.064-301.12l-57.536 16.64 45.76-139.2 116.544 92.544-63.36 18.176zM960 248.704l-45.76 139.2-116.416-92.608 62.464-17.984c-44.992-151.68-183.232-262.72-346.56-262.72-162.944 0-300.8 110.528-346.176 261.76l-0.192 0c-2.752 9.792-11.456 17.28-21.952 17.28-12.608 0-22.848-10.688-22.848-23.872 0-1.408 0.128-2.816 0.448-4.032l-0.448-0.256c50.048-172.096 206.144-297.472 390.976-297.472 184.704 0 340.608 125.12 390.848 296.704l55.616-16z"  horiz-adv-x="1024" />

    
    <glyph glyph-name="guanbigongjulan" unicode="&#58952;" d="M627.548 382.811l364.924 364.925c31.893 31.893 31.893 83.595 0 115.488-31.892 31.893-83.596 31.893-115.488 0l-364.925-364.924-364.924 364.924c-31.893 31.893-83.596 31.893-115.489 0-31.893-31.893-31.893-83.595 0-115.488l364.925-364.925-364.925-364.924c-31.893-31.892-31.893-83.596 0-115.488 31.893-31.894 83.596-31.894 115.489 0l364.925 364.925 364.924-364.926c31.892-31.894 83.596-31.894 115.488 0 31.893 31.892 31.893 83.596 0 115.488l-364.924 364.925z"  horiz-adv-x="1024" />

    
    <glyph glyph-name="xiaosanjiaoup" unicode="&#58919;" d="M288.864 259.968l223.104 230.72 223.168-230.688z"  horiz-adv-x="1024" />

    
    <glyph glyph-name="huifu-copy" unicode="&#58949;" d="M241.126 73.603c155.063-155.063 407.51-154.039 563.806 2.257 43.886 43.886 75.065 95.462 94.459 150.193 0 0 23.26 30.052-4.598 57.888-16.321 16.321-42.903 16.217-59.35-0.229-24.89-24.869-22.403-49.341-22.403-49.341-15.464-36.049-37.741-69.903-67.207-99.369-123.403-123.424-322.707-124.218-445.105-1.798-122.4 122.421-121.605 321.703 1.797 445.105 91.199 91.199 223.713 115.127 336.122 72.057l-32.788-56.027c-8.548-14.629-8.652-31.159-0.271-45.662 8.358-14.482 22.716-22.674 39.643-22.569l211.571-11.766c16.927 0.083 33.666 7.146 42.214 21.755 8.547 14.607 6.374 32.434-1.985 46.937l-99.851 202.585c-8.38 14.503-27.48 27.856-44.659 23.614-16.446-4.033-26.415-9.487-34.962-24.095l-35.84-61.21c-144.969 61.147-319.404 32.35-438.314-86.539-156.318-156.297-157.342-408.724-2.279-563.786z"  horiz-adv-x="1024" />

    
    <glyph glyph-name="paizhao" unicode="&#58950;" d="M511.353 571.717c-141.199 0-255.676-114.478-255.676-255.678 0-141.198 114.478-255.676 255.676-255.676 141.196 0 255.678 114.449 255.678 255.676 0 141.198-114.482 255.678-255.678 255.678zM511.353 124.286c-105.866 0-191.759 85.824-191.759 191.754 0 105.866 85.893 191.759 191.759 191.759 105.864 0 191.759-85.92 191.759-191.759-0.002-105.931-85.895-191.754-191.759-191.754zM894.866 699.556h-95.881l-31.956 63.918c-18.853 37.109-28.654 63.918-63.92 63.918h-383.515c-35.266 0-47.003-30.525-63.918-63.918l-31.959-63.92h-95.88c-70.598 0.002-127.837-57.239-127.837-127.837v-511.352c0-70.596 57.239-127.839 127.837-127.839h767.031c70.596 0 127.835 57.239 127.835 127.839l-0 511.352c0 70.598-57.239 127.839-127.837 127.839zM958.788 60.363c0-35.331-28.656-63.92-63.92-63.92h-767.031c-35.266 0-63.918 28.589-63.918 63.92l-0 511.353c0 35.266 28.652 63.918 63.918 63.918h127.839l31.957 63.92c22.596 37.109 28.652 63.92 63.918 63.92h319.596c35.265 0 41.323-26.81 63.922-63.92l31.959-63.92h127.837c35.263 0 63.92-28.65 63.92-63.918l-0-511.353z"  horiz-adv-x="1024" />

    
    <glyph glyph-name="zuixiaohua" unicode="&#58880;" d="M835.752 97.174l-647.069 0c-24.899 0-45.074 20.183-45.074 45.078 0 24.891 20.174 45.074 45.074 45.074l647.069 0c24.899 0 45.074-20.183 45.074-45.074 0-24.895-20.174-45.078-45.074-45.078l0 0zM835.752 97.174z"  horiz-adv-x="1024" />

    
    <glyph glyph-name="guanbi" unicode="&#58881;" d="M557.312 382.752l265.28 263.904c12.544 12.48 12.608 32.704 0.128 45.248-12.512 12.576-32.704 12.608-45.248 0.128l-265.344-263.936-263.04 263.84C236.64 704.416 216.384 704.48 203.84 692 191.328 679.52 191.296 659.264 203.776 646.72l262.976-263.776L201.6 119.2c-12.544-12.48-12.608-32.704-0.128-45.248 6.24-6.272 14.464-9.44 22.688-9.44 8.16 0 16.32 3.104 22.56 9.312l265.216 263.808 265.44-266.24c6.24-6.272 14.432-9.408 22.656-9.408 8.192 0 16.352 3.136 22.592 9.344 12.512 12.48 12.544 32.704 0.064 45.248L557.312 382.752z"  horiz-adv-x="1024" />

    
    <glyph glyph-name="fanhui" unicode="&#58916;" d="M661.735 605.289h-454.17l172.742 172.741-52.462 52.461-262.372-262.302 262.372-262.301 52.462 52.461-172.742 172.742h454.17c122.964 0 222.592-99.704 222.592-222.593v-74.198c0-122.889-99.628-222.593-222.592-222.593h-519.383v-74.198h519.383c163.901 0 296.789 132.888 296.789 296.791v74.198c0 163.903-132.889 296.791-296.789 296.791z"  horiz-adv-x="1024" />

    
    <glyph glyph-name="shoukebao" unicode="&#58885;" d="M898.13 458.777h-612.677c-41.284 0-74.758-74.795-74.758-74.795l-74.758-149.514-0 261.687c0 41.249 33.473 74.758 74.758 74.758h523.3v-37.378h74.757v37.378c0 36.21-16.535 74.758-74.757 74.758l-299.028 0c0 0-87.568 112.136-149.513 112.136h-149.515c-36.248 0-74.758-38.548-74.758-74.758v-598.095c0-41.248 33.473-74.758 74.758-74.758h635.435c40.798 0 61.264 31.611 74.758 74.758l112.136 299.028c17.634 52.309-18.854 74.795-60.138 74.795z"  horiz-adv-x="1024" />

    
    <glyph glyph-name="shangxiake" unicode="&#58896;" d="M511.999 28.887c-20.625 0-37.378 16.753-37.378 37.378h-74.758c0-61.912 50.191-112.138 112.136-112.138s112.135 50.226 112.135 112.138h-74.757c0-20.625-16.755-37.378-37.378-37.378zM773.285 322.773c0 0 0.363 152.284 0.363 154.692 0 118.779-79.247 218.943-187.695 250.847-0.075 0.51 0.802 7.593 0.802 10.803 0 41.249-33.474 74.758-74.758 74.758-41.284 0-74.758-33.508-74.758-74.758 0-3.21 0.877-10.293 0.801-10.803-108.448-31.905-187.695-132.068-187.695-250.847 0-4.232-0.546-12.482-0.546-12.482v-142.506c-63.917-16.83-111.297-74.358-111.554-143.495 0.147-20.514 16.791-37.157 37.344-37.157h672.814c20.552 0 37.197 16.643 37.344 37.157-0.255 69.486-48.057 127.316-112.462 143.791z"  horiz-adv-x="1024" />

    
    <glyph glyph-name="mulu" unicode="&#58912;" d="M175.593 757.805c-41.321 0-74.758-33.508-74.758-74.758 0-41.321 33.437-74.758 74.758-74.758 41.248 0 74.757 33.437 74.757 74.758-0.001 41.249-33.509 74.758-74.757 74.758zM175.593 458.776c-41.321 0-74.758-33.508-74.758-74.795 0-41.245 33.437-74.757 74.758-74.757 41.248 0 74.757 33.511 74.757 74.757-0.001 41.287-33.509 74.795-74.757 74.795zM175.593 159.71c-41.321 0-74.758-33.436-74.758-74.758 0-41.248 33.437-74.758 74.758-74.758 41.248 0 74.757 33.509 74.757 74.758-0.001 41.322-33.509 74.758-74.757 74.758zM904.476 720.426h-523.3c-10.369 0-18.692-8.394-18.692-18.691v-37.378c0-10.366 8.323-18.689 18.692-18.689h523.3c10.293 0 18.688 8.323 18.688 18.689v37.378c-0 10.295-8.394 18.691-18.688 18.691zM904.476 421.397h-523.3c-10.369 0-18.692-8.396-18.692-18.69v-37.413c0-10.295 8.323-18.692 18.692-18.692h523.3c10.293 0 18.688 8.396 18.688 18.692v37.413c-0 10.293-8.394 18.69-18.688 18.69zM904.476 122.331h-523.3c-10.369 0-18.692-8.323-18.692-18.688v-37.378c0-10.293 8.323-18.692 18.692-18.692h523.3c10.293 0 18.688 8.398 18.688 18.692v37.378c-0 10.365-8.394 18.688-18.688 18.688z"  horiz-adv-x="1024" />

    
    <glyph glyph-name="luke" unicode="&#58905;" d="M269.039 570.894c-30.956 0-56.070-25.114-56.070-56.067 0-30.955 25.114-56.069 56.070-56.069 30.953 0 56.066 25.114 56.066 56.069 0 30.953-25.113 56.067-56.066 56.067zM923.162 570.894l-112.132-56.067v93.444c0 61.946-50.194 112.136-112.138 112.136h-523.301c-61.907 0-112.136-50.19-112.136-112.136v-448.542c0-61.908 50.229-112.136 112.136-112.136h523.301c61.944 0 112.138 50.228 112.138 112.136v93.448l112.132-56.070c18.518-11.166 37.382-3.712 37.382 16.912l-0 339.961c0 20.662-19.206 26.274-37.382 16.913zM736.27 159.729c0-20.624-16.717-37.378-37.378-37.378l-523.301-0c-20.624 0-37.378 16.755-37.378 37.378l0 448.542c0 20.662 16.755 37.379 37.378 37.379h523.301c20.662 0 37.378-16.718 37.378-37.379l-0-448.542z"  horiz-adv-x="1024" />

    
    <glyph glyph-name="jujiao" unicode="&#58915;" d="M816.892 803.228h-190.557v-76.224h190.557c21.030 0 38.112-17.082 38.112-38.11v-190.559h76.222l0 190.558c0.001 63.122-51.212 114.335-114.334 114.335zM168.993 688.893c0 21.028 17.048 38.11 38.114 38.11h190.557v76.225h-190.557c-63.162 0-114.334-51.213-114.334-114.334v-190.559h76.22l0 190.558zM168.993 79.108v190.558h-76.22v-190.559c0-63.162 51.173-114.334 114.334-114.334h190.557v76.224l-190.557 0c-21.066 0-38.114 17.045-38.114 38.111zM855.004 79.108c0-21.066-17.082-38.11-38.112-38.11l-190.557-0v-76.224h190.557c63.122 0 114.334 51.173 114.334 114.334l-0 190.558h-76.222l0-190.558zM511.998 536.447c-84.187 0-152.445-68.262-152.445-152.447 0-84.188 68.258-152.446 152.445-152.446s152.447 68.258 152.447 152.446c-0.001 84.184-68.261 152.447-152.447 152.447z"  horiz-adv-x="1024" />

    
    <glyph glyph-name="huabi" unicode="&#58904;" d="M884.642 757.429c-72.969 73.006-129.364 82.058-158.566 52.856l-79.285-79.284 211.422-211.422 79.319 79.285c29.167 29.2 20.115 85.598-52.89 158.565zM144.59 228.799c-14.601-14.565-68.333-226.899-68.333-226.899-3.194-8.709-10.073-42.18 0-52.856 7.039-7.461 25.424-10.638 52.856 0 0 0 212.334 53.731 226.939 68.333l449.309 449.345-211.425 211.421-449.345-449.345zM132.178 4.965l53.586 182.658 129.111-129.072-182.697-53.586z"  horiz-adv-x="1024" />

    
    <glyph glyph-name="heiban" unicode="&#58888;" d="M848.406 757.785h-672.814c-61.946 0-112.136-50.19-112.136-112.135v-523.3c0-61.908 50.19-112.136 112.136-112.136h672.814c61.945 0 112.136 50.228 112.136 112.136l0 523.3c0 61.945-50.191 112.135-112.136 112.135zM885.786 122.35c0-20.624-16.756-37.378-37.379-37.378l-672.814-0c-20.625 0-37.378 16.755-37.378 37.378l0 523.3c0 20.661 16.754 37.377 37.378 37.377h672.814c20.624 0 37.379-16.717 37.379-37.377l-0-523.3zM773.649 608.271h-523.3c-20.624 0-37.377-16.716-37.377-37.377v-373.785c0-20.624 16.754-37.378 37.377-37.378h56.069c-10.331 0-18.69 8.398-18.69 18.692v37.378c0 10.365 8.358 18.688 18.69 18.688l186.892-0c10.331 0 18.691-8.323 18.691-18.688v-37.378c0-10.293-8.359-18.692-18.691-18.692h280.34c20.624 0 37.378 16.755 37.378 37.378l-0 373.785c0.001 20.662-16.754 37.377-37.378 37.377z"  horiz-adv-x="1024" />

    
    <glyph glyph-name="fuzhugongju" unicode="&#58903;" d="M923.164 626.962h-149.515v37.378c0 61.946-50.228 112.136-112.136 112.136l-299.028-0c-61.945 0-112.136-50.19-112.136-112.136v-37.378l-149.513 0c-20.662 0-37.378-16.719-37.378-37.378v-186.894c0-20.624 16.717-37.377 37.378-37.377v-261.651c0-61.908 50.19-112.136 112.136-112.136h598.057c61.908 0 112.136 50.228 112.136 112.136v261.65c20.625 0 37.378 16.754 37.378 37.377l-0 186.894c0 20.661-16.754 37.379-37.378 37.379zM325.106 664.34c0 20.66 16.72 37.378 37.378 37.378h299.028c20.625 0 37.379-16.719 37.379-37.378v-37.378h-373.786v37.378zM138.213 552.204h747.572v-112.136h-302.46c-7.74 21.758-28.289 37.378-52.636 37.378h-37.381c-24.381 0-44.933-15.622-52.637-37.378h-302.459l-0 112.136zM848.406 103.661c0-20.624-16.755-37.378-37.378-37.378h-598.057c-20.66 0-37.378 16.755-37.378 37.378v261.65h261.649v-93.448c0-30.953 25.076-56.066 56.067-56.066h37.381c30.952 0 56.066 25.113 56.066 56.066v93.448h261.649l-0-261.65z"  horiz-adv-x="1024" />

    
    <glyph glyph-name="fangda" unicode="&#58886;" d="M948.929 26.385l-136.737 136.699c-3.286 3.286-7.118 5.586-11.137 7.411 53.331 69.355 85.418 155.941 85.418 250.19 0 227.117-184.083 411.164-411.164 411.164-227.084 0-411.163-184.047-411.163-411.164 0-227.047 184.079-411.164 411.163-411.164 94.285 0 180.869 32.085 250.226 85.414 1.785-4.013 4.086-7.885 7.371-11.168l136.703-136.666c14.602-14.601 38.291-14.601 52.857 0l26.463 26.428c14.566 14.6 14.566 38.252-0 52.856zM475.309 84.278c-185.798 0-336.406 150.608-336.406 336.408 0 185.796 150.608 336.407 336.406 336.407 185.796 0 336.408-150.611 336.408-336.407 0-185.8-150.611-336.408-336.408-336.408zM643.511 458.063h-130.823v130.825c0 10.368-8.36 18.691-18.692 18.691h-37.376c-10.332 0-18.69-8.323-18.69-18.691v-130.825h-130.826c-10.331 0-18.689-8.325-18.689-18.691v-37.377c0-10.294 8.357-18.689 18.689-18.689h130.826v-130.827c0-10.293 8.357-18.688 18.69-18.688h37.376c10.331 0 18.692 8.394 18.692 18.688v130.828h130.824c10.331 0 18.691 8.394 18.691 18.689v37.377c-0.001 10.366-8.36 18.69-18.692 18.69z"  horiz-adv-x="1024" />

    
    <glyph glyph-name="danye" unicode="&#58913;" d="M698.893 813.854h-448.545c-61.908 0-112.136-50.19-112.136-112.136v-635.436c0-61.91 50.228-112.136 112.136-112.136h523.3c61.908 0 112.137 50.226 112.137 112.136l-0 560.68-186.893 186.893zM811.028 66.282c0-20.624-16.717-37.378-37.378-37.378h-523.301c-20.662 0-37.378 16.755-37.378 37.378l0 635.436c0 20.659 16.717 37.378 37.378 37.378h373.785v-112.136c0-41.248 33.474-74.758 74.759-74.758h112.135l-0-485.921zM325.106 552.204h224.272v-37.378h-224.272v37.378zM325.106 402.69h373.786v-37.377h-373.786v37.377zM325.106 253.175h373.786v-37.378h-373.786v37.378z"  horiz-adv-x="1024" />

    
    <glyph glyph-name="chuti" unicode="&#58900;" d="M759.486 66.282c0-20.624-16.756-37.378-37.379-37.378h-523.299c-20.624 0-37.378 16.755-37.378 37.378l0 635.436c0 20.659 16.755 37.378 37.378 37.378h498.368l73.701 63.184c-14.783 7.193-31.21 11.574-48.769 11.574h-523.299c-61.945 0-112.136-50.19-112.136-112.136v-635.435c0-61.91 50.191-112.136 112.136-112.136h523.299c61.945 0 112.136 50.226 112.136 112.136l-0 299.028-74.757-74.758v-224.272zM892.173 684.889c-48.256 48.222-85.524 54.209-104.834 34.936l-52.382-52.419 139.732-139.697 52.38 52.381c19.309 19.273 13.323 56.58-34.897 104.799zM403.113 335.598c-9.637-9.637-45.154-187.331-45.154-187.331s173.351 37.231 184.886 47.598l296.91 296.912-139.731 139.732-296.91-296.912zM273.564 626.961h299.028v-37.378h-299.028v37.378zM273.564 477.446h186.894v-37.378h-186.894v37.378zM273.564 327.933h74.758v-37.378h-74.758v37.378z"  horiz-adv-x="1024" />

    
    <glyph glyph-name="banca" unicode="&#58902;" d="M957.277 25.874h-367.47l362.249 409.121c40.593 46.759 35.664 117.613-11.097 158.201l-225.656 196.164c-21.246 18.471-47.453 27.525-73.516 27.525-31.358 0-62.492-13.069-84.686-38.548l-512.643-601.414 235.825-225.737 676.993-0.068c10.331 0 18.692 8.396 18.692 18.692v37.378c0 10.364-8.36 18.687-18.691 18.687zM147.14 182.142l288.478 338.415 275.011-245.442-220.659-249.241-179.886 0.363-162.945 155.905z"  horiz-adv-x="1024" />

    
    <glyph glyph-name="shujia" unicode="&#58897;" d="M904.476301 28.887167c-3.725858 0-781.266653 0-784.953625 0-20.658506 0-37.378306-16.720823-37.378306-37.380352 0-20.623713 16.7198-37.378306 37.378306-37.378306 3.687996 0 781.228791 0 784.953625 0 20.620643 0 37.378306 16.754592 37.378306 37.378306C941.854607 12.167367 925.096944 28.887167 904.476301 28.887167zM455.932542 141.022083l112.13287 0c20.623713 0 37.381375 16.754592 37.381375 37.378306L605.446787 776.493186c0 20.624736-16.757662 37.378306-37.381375 37.378306L455.932542 813.871491c-20.661575 0-37.381375-16.754592-37.381375-37.378306l0-598.092797C418.551166 157.776675 435.269943 141.022083 455.932542 141.022083zM511.999488 327.914634c30.955013 0 56.065923-25.115004 56.065923-56.06797s-25.110911-56.06797-56.065923-56.06797c-30.989805 0-56.066947 25.115004-56.066947 56.06797S481.009683 327.914634 511.999488 327.914634zM717.579657 141.022083l112.137986 0c20.621667 0 37.378306 16.754592 37.378306 37.378306L867.095949 664.357246c0 20.624736-16.756639 37.378306-37.378306 37.378306L717.579657 701.735551c-20.658506 0-37.376259-16.754592-37.376259-37.378306l0-485.956857C680.203398 157.776675 696.921151 141.022083 717.579657 141.022083zM773.64865 327.914634c30.956036 0 56.068993-25.115004 56.068993-56.06797s-25.112957-56.06797-56.068993-56.06797c-30.989805 0-56.068993 25.115004-56.068993 56.06797S742.658845 327.914634 773.64865 327.914634zM194.279287 141.022083l112.137986 0c20.621667 0 37.375236 16.754592 37.375236 37.378306L343.792509 589.599611c0 20.624736-16.753569 37.378306-37.375236 37.378306L194.279287 626.977917c-20.658506 0-37.378306-16.754592-37.378306-37.378306l0-411.199223C156.900981 157.776675 173.620781 141.022083 194.279287 141.022083zM250.34828 327.914634c30.955013 0 56.068993-25.115004 56.068993-56.06797s-25.113981-56.06797-56.068993-56.06797c-30.989805 0-56.068993 25.115004-56.068993 56.06797S219.358475 327.914634 250.34828 327.914634z"  horiz-adv-x="1024" />

    
    <glyph glyph-name="ziyuanzhongxin" unicode="&#58884;" d="M811.028 795.184c-6.501 21.051-16.755 37.378-37.379 37.378h-523.3c-20.624 0-30.777-16.19-37.377-37.378l-149.514-485.959v-261.651c0-61.908 50.19-112.136 112.136-112.136h672.814c61.945 0 112.136 50.228 112.136 112.136l0 261.651-149.514 485.959zM736.271 309.225c-20.625 0-37.378-16.717-37.378-37.378v-37.378c0-41.248-33.474-74.758-74.759-74.758l-224.271 0c-41.283 0-74.758 33.509-74.758 74.758v37.378c0 20.662-16.754 37.378-37.377 37.378l-131.922-0 131.922 448.581h448.543l131.92-448.581h-131.92zM381.175 570.912h261.647c10.331 0 18.691 8.323 18.691 18.689v37.378c0 10.297-8.359 18.691-18.691 18.691l-261.647-0c-10.331 0-18.691-8.394-18.691-18.691v-37.378c0-10.367 8.359-18.689 18.691-18.689zM680.203 496.154h-336.409c-10.329 0-18.689-8.396-18.689-18.69v-37.378c0-10.367 8.359-18.69 18.689-18.69h336.409c10.329 0 18.69 8.323 18.69 18.69l0 37.378c0 10.293-8.36 18.69-18.69 18.69z"  horiz-adv-x="1024" />

    
    <glyph glyph-name="zhuanye" unicode="&#58901;" d="M773.649 813.871h-523.3c-61.945 0-112.136-50.225-112.136-112.136v-635.47c0-61.912 50.191-112.138 112.136-112.138h523.3c61.908 0 112.137 50.226 112.137 112.138l-0 635.47c0 61.911-50.229 112.136-112.137 112.136zM811.028 66.266c0-20.626-16.717-37.378-37.378-37.378l-523.301 0c-20.662 0-37.378 16.753-37.378 37.378l0 635.469c0 20.624 16.717 37.378 37.378 37.378h523.3c20.662 0 37.378-16.755 37.378-37.378v-635.469zM511.999 477.465h-19.382c-113.157 0-204.889-91.766-204.889-204.888v-19.419h11.096c23.070 65.122 84.066 112.136 157.109 112.136h56.067v-112.136l224.272 175.394-224.272 161.049v-112.135z"  horiz-adv-x="1024" />

    
    <glyph glyph-name="touying" unicode="&#58899;" d="M175.593 84.969c0-30.953 25.113-56.066 56.066-56.066h37.378c30.955 0 56.069 25.113 56.069 56.066v56.070l-149.513-0v-56.070zM698.893 84.969c0-30.953 25.113-56.066 56.069-56.066h37.375c30.955 0 56.069 25.113 56.069 56.066v56.070l-149.513-0v-56.070zM848.406 739.096h-672.814c-61.908 0-112.136-50.19-112.136-112.136v-336.406c0-61.908 50.228-112.136 112.136-112.136h672.814c61.908 0 112.136 50.228 112.136 112.136l0 336.406c0 61.946-50.228 112.136-112.136 112.136zM399.864 327.933h-261.649v37.378h261.649v-37.378zM399.864 440.067h-261.649v37.378h261.649v-37.378zM399.864 552.203h-261.649v37.378h261.649v-37.378zM680.203 253.175c-113.524 0-205.582 92.058-205.582 205.579 0 113.56 92.059 205.583 205.582 205.583s205.582-92.024 205.582-205.583c0-113.521-92.059-205.579-205.582-205.579zM680.203 589.581c-72.275 0-130.826-58.551-130.826-130.827 0-72.239 58.551-130.823 130.826-130.823 72.274 0 130.825 58.583 130.825 130.823 0 72.277-58.551 130.827-130.825 130.827z"  horiz-adv-x="1024" />

    
    <glyph glyph-name="tianjia" unicode="&#58883;" d="M819.024 827.484h-614.053c-75.355 0-136.455-61.101-136.455-136.46v-614.052c0-75.359 61.1-136.456 136.455-136.456h614.053c75.359 0 136.459 61.096 136.459 136.456v614.053c0 75.358-61.1 136.459-136.459 136.459zM887.252 76.972c0-37.711-30.583-68.228-68.228-68.228l-614.053-0c-37.645 0-68.228 30.517-68.228 68.228l-0 614.052c0 37.714 30.583 68.228 68.228 68.228h614.053c37.645 0 68.228-30.513 68.228-68.228l0-614.052zM546.111 622.799h-68.228v-204.688h-204.682v-68.226h204.682v-204.683h68.228v204.683h204.686v68.226h-204.686z"  horiz-adv-x="1024" />

    
    <glyph glyph-name="shuangye" unicode="&#58914;" d="M848.266 813.674h-672.532c-61.922 0-112.090-50.207-112.090-112.088v-635.169c0-61.92 50.168-112.090 112.090-112.090h672.532c61.916 0 112.088 50.17 112.088 112.090l0 635.168c0 61.88-50.172 112.089-112.088 112.089zM138.372 66.416v635.169c0 20.65 16.744 37.363 37.363 37.363h298.904v-709.895h-298.905c-20.618 0.001-37.362 16.71-37.362 37.363zM885.629 66.416c0-20.654-16.748-37.363-37.363-37.363h-298.903v709.895h298.904c20.615 0 37.363-16.713 37.363-37.363v-635.169zM213.097 552.133h186.814v-37.363h-186.814v37.363zM213.097 402.683h186.814v-37.363h-186.814v37.363zM213.097 253.23h186.814v-37.363h-186.814v37.363zM624.088 552.133h186.814v-37.363h-186.814v37.363zM624.088 402.683h186.814v-37.363h-186.814v37.363zM624.088 253.23h186.814v-37.363h-186.814v37.363z"  horiz-adv-x="1024" />

    
    <glyph glyph-name="shubiao" unicode="&#58898;" d="M829.718 512.654l-584.113 253.728c-9.78 4.259-21.379 8.621-33.605 8.621-30.99 0-55.098-23.075-55.098-54.067 0-6.572 2.118-18.689 2.118-18.689l149.404-635.436c0 0 11.022-37.377 54.060-37.377 37.419 0 55.228 37.377 55.228 37.377l88.336 156.523 175.178-207.262c23.068-27.303 63.989-30.881 91.44-8.031l33.144 27.632c27.449 22.888 31.027 63.552 7.956 90.854l-176.343 208.688 192.297 71.217c0 0 37.378 11.949 37.378 52.853 0.001 43.519-37.378 53.37-37.378 53.37z"  horiz-adv-x="1024" />

    
    <glyph glyph-name="suoxiao" unicode="&#58887;" d="M948.895977 26.385183 812.196595 163.084565c-3.285836 3.285836-7.118118 5.586229-11.136641 7.410783 53.330626 69.354578 85.418438 155.940608 85.418438 250.189156 0 227.116671-184.120414 411.164431-411.164431 411.164431-227.118718 0-411.164431-184.046736-411.164431-411.164431 0-227.047086 184.045713-411.164431 411.164431-411.164431 94.247524 0 180.831508 32.084743 250.187109 85.414345 1.823532-4.013407 4.087085-7.884574 7.40976-11.168364l136.702452-136.665613c14.601556-14.600533 38.254256-14.600533 52.856835 0l26.424836 26.427906C963.499579-11.871119 963.499579 11.78158 948.895977 26.385183zM475.313961 84.277708c-185.798637 0-336.406796 150.60816-336.406796 336.406796 0 185.795567 150.60816 336.406796 336.406796 336.406796 185.795567 0 336.407819-150.61123 336.407819-336.406796C811.721781 234.885867 661.110551 84.277708 475.313961 84.277708zM643.515824 458.062809 307.109028 458.062809c-10.366092 0-18.687618-8.324596-18.687618-18.690688l0-37.377282c0-10.29446 8.321526-18.688641 18.687618-18.688641l336.406796 0c10.29446 0 18.690688 8.394181 18.690688 18.688641l0 37.377282C662.206512 449.738213 653.810285 458.062809 643.515824 458.062809z"  horiz-adv-x="1024" />

    
    <glyph glyph-name="jiantouyou" unicode="&#58918;" d="M329.924 833.89l449.891-449.89-449.891-449.89-85.74 85.74 364.151 364.151-364.151 364.151z"  horiz-adv-x="1024" />

    
    <glyph glyph-name="jiantouzuo" unicode="&#58917;" d="M647.003 833.89l-449.891-449.89 449.891-449.89 85.74 85.74-364.152 364.151 364.152 364.151z"  horiz-adv-x="1024" />

    
    <glyph glyph-name="jiantoushang" unicode="&#58920;" d="M961.891 201.923l-449.89 449.892-449.891-449.89 85.74-85.74 364.152 364.152 364.151-364.154z"  horiz-adv-x="1024" />

    
    <glyph glyph-name="jiantouxia" unicode="&#58921;" d="M961.891 566.076l-449.89-449.892-449.891 449.892 85.74 85.74 364.152-364.15 364.151 364.15z"  horiz-adv-x="1024" />

    
    <glyph glyph-name="jianpan" unicode="&#58930;" d="M956.322 764.863h-888.686c-35.057 0-63.478-28.387-63.478-63.477v-634.772c0-35.086 28.42-63.477 63.478-63.477h888.686c35.055 0 63.477 28.391 63.477 63.477v634.772c0.001 35.090-28.421 63.477-63.477 63.477zM956.322 66.614h-888.686v634.772h888.686v-634.772zM258.068 257.045h507.822v-63.477h-507.822v63.477zM194.591 574.432h63.477v-63.477h-63.477v63.477zM385.021 574.432h63.478v-63.477h-63.478v63.477zM575.457 574.432h63.477v-63.477h-63.477v63.477zM765.889 574.432h63.477v-63.477h-63.477v63.477zM194.591 447.478h63.477v-63.477h-63.477v63.477zM385.021 447.478h63.478v-63.477h-63.478v63.477zM575.457 447.478h63.477v-63.477h-63.477v63.477zM765.889 447.478h63.477v-63.477h-63.477v63.477z"  horiz-adv-x="1036" />

    
    <glyph glyph-name="luyin" unicode="&#58928;" d="M511.997 193.565c122.711 0 222.174 99.429 222.174 222.171 0 5.458-1.212 10.541-1.615 15.869 0.466 5.332 1.615 10.419 1.615 15.869v126.955c0 5.458-1.149 10.54-1.615 15.868 0.404 5.337 1.615 10.418 1.615 15.87 0 122.74-99.463 222.174-222.174 222.174-122.707 0-222.171-99.434-222.171-222.174 0-5.452 1.212-10.534 1.612-15.87-0.466-5.328-1.612-10.41-1.612-15.868v-126.955c0-5.45 1.146-10.537 1.612-15.869-0.4-5.328-1.612-10.411-1.612-15.869 0-122.743 99.464-222.171 222.171-222.171zM354.73 595.073c-0.25 3.472-0.68 6.882-1.425 11.096 0 87.531 71.196 158.693 158.693 158.693 87.5 0 158.693-71.163 158.416-159.56-0.464-3.347-0.898-6.758-1.145-10.229-0.25-3.407-0.25-6.882 0.062-10.287 0.246-3.037 0.65-6.013 1.361-10.356l-0.308-128.254c-0.404-3.038-0.807-6.014-1.053-9.050-0.312-3.414-0.312-6.882-0.062-10.295 0.247-3.468 0.682-6.878 1.423-11.095 0-87.528-71.193-158.694-158.693-158.694-87.497 0-158.693 71.166-158.413 159.564 0.465 3.347 0.895 6.758 1.145 10.225 0.25 3.414 0.25 6.882-0.061 10.295-0.251 3.036-0.65 6.012-1.364 10.349l0.311 128.257c0.404 3.041 0.803 6.017 1.054 9.054 0.31 3.406 0.31 6.881 0.059 10.287zM861.127 383.998h-63.478c0-140.219-113.692-253.91-253.913-253.91h-63.477c-140.221 0-253.91 113.691-253.91 253.91h-63.477c0-175.307 142.113-317.387 317.387-317.387v-63.477l-190.433 0v-63.477h444.345v63.477h-190.435v63.477c175.277 0 317.391 142.079 317.391 317.387z"  horiz-adv-x="1024" />

    
    <glyph glyph-name="shouxie" unicode="&#58929;" d="M221.182 47.705c59.848 25.803 216.007 94.792 245.938 124.724l403.956 403.925c37.194 37.197 37.194 97.511 0 134.643l-44.878 44.879c-18.569 18.599-42.96 27.897-67.322 27.897-24.392 0-48.753-9.299-67.351-27.897l-403.958-403.924c-37.163-37.197-134.644-269.285-134.644-269.285l34.915-34.96-120.182 0v-63.477h888.685v63.477h-735.16zM736.402 710.995c8.091 8.12 17.545 9.3 22.473 9.3 4.899 0 14.351-1.18 22.44-9.3l44.882-44.878c8.087-8.058 9.296-17.483 9.296-22.443 0-4.898-1.209-14.316-9.296-22.44l-22.443-22.439-89.792 89.822 22.44 22.379zM669.084 643.674l89.791-89.761-314.195-314.162-89.792 89.757 314.196 314.166zM315.027 279.609l79.688-79.66c-34.496-19.279-93.294-47.42-154.107-74.511 27.122 60.939 55.326 119.886 74.419 154.171z"  horiz-adv-x="1024" />

    
    <glyph glyph-name="zhantai" unicode="&#58934;" d="M884.822 346.988h-746.235l-74.623-298.494h895.481l-74.622 298.494zM213.21 123.118l37.314 186.558h522.363l37.314-186.558h-596.991zM940.791 11.183h-858.173c-10.303 0-18.655-8.353-18.655-18.656v-37.312c0-10.303 8.352-18.656 18.655-18.656h858.172c10.302 0 18.654 8.353 18.654 18.656v37.312c0.001 10.302-8.351 18.656-18.653 18.656M730.032 794.874h-0.215c-0.047 20.566-16.731 37.226-37.31 37.226h-149.248c-20.58 0-37.266-16.661-37.309-37.231-20.51-0.115-37.101-16.771-37.101-37.308v-298.495c0-20.606 16.704-37.311 37.312-37.311h223.869c20.608 0 37.312 16.704 37.312 37.311l-0 298.495c0.001 20.608-16.703 37.313-37.311 37.313M697.837 496.379h-149.248v223.87h149.248l0-223.87zM325.146 682.938c-20.607 0-37.312-16.704-37.312-37.311v-298.495c0-20.607 16.704-37.313 37.312-37.313l149.248 0c20.607 0 37.311 16.705 37.311 37.313h-149.248v261.182h149.248l0 74.623h-186.559z"  horiz-adv-x="1024" />

    
    <glyph glyph-name="kuaizhao" unicode="&#58889;" d="M922.466739 335.750186l-80.392821 0c-15.251325 43.145573-56.392245 74.060615-104.761786 74.060615l-74.061638 0c-48.369541 0-89.511484-30.915042-104.761786-74.060615l-80.389751 0c-20.451757 0-37.030307-16.579574-37.030307-37.031331l0-259.215222c0-20.451757 16.578551-37.031331 37.030307-37.031331l444.367782 0c20.451757 0 37.031331 16.578551 37.031331 37.031331L959.498069 298.718855C959.498069 319.170612 942.919519 335.750186 922.466739 335.750186M700.281824 39.504657c-81.804981 0-148.123276 66.316249-148.123276 148.122253s66.318296 148.123276 148.123276 148.123276c81.806004 0 148.122253-66.317272 148.122253-148.123276S782.088852 39.504657 700.281824 39.504657M700.282848 261.688548c-40.903514 0-74.061638-33.158124-74.061638-74.061638 0-40.90249 33.158124-74.060615 74.061638-74.060615s74.061638 33.158124 74.061638 74.060615C774.344486 228.530423 741.186361 261.688548 700.282848 261.688548M939.275533 768.408298 229.150546 768.408298l-37.377207 0c-10.320022 0-18.686557-8.366535-18.686557-18.68758l0-37.375161 0-597.999504c0-10.321046 8.366535-18.68758 18.686557-18.68758l37.377207 0c10.321046 0 18.68758 8.366535 18.68758 18.68758L247.838126 693.657977l691.437407 0c10.321046 0 18.68758 8.366535 18.68758 18.68758l0 37.375161C957.963113 760.041764 949.596578 768.408298 939.275533 768.408298M831.149123 846.384075 831.149123 864.607075l-18.223 0C822.991342 864.607075 831.149123 856.448271 831.149123 846.384075zM62.707055 226.78569l0-18.212767 18.224024 0C70.869952 208.572922 62.712172 216.72661 62.707055 226.78569zM62.707055 263.252157l0-36.466467c0.005117-10.05908 8.162897-18.212767 18.224024-18.212767L355.107007 208.572922 355.107007 281.464924 80.930056 281.464924C70.869952 281.464924 62.712172 273.31226 62.707055 263.252157zM812.927146 864.607075l-36.446001 0c-10.064196 0-18.223-8.158804-18.223-18.223L758.258144 497.238838l0-31.435904 72.890978 0 0 31.435904L831.149123 846.384075C831.149123 856.448271 822.991342 864.607075 812.927146 864.607075z"  horiz-adv-x="1024" />

    
    <glyph glyph-name="lajitong" unicode="&#58961;" d="M841.797 569.281c-20.137 0-37.891-16.348-37.891-36.484v-545.957c0-20.137-16.641-35.996-36.797-35.996h-510.449c-20.137 0-36.992 15.957-36.992 35.996l0 547.539c0 20.137-14.746 36.484-34.902 36.484s-34.902-16.348-34.902-36.484v-547.441c0-60.313 46.465-112.754 106.777-112.754h510.566c60.313 0 112.559 52.539 112.559 112.754l0 545.957c-0.078 20.039-17.832 36.387-37.969 36.387zM436.016 132.699v401.094c0 20.137-14.746 36.484-34.902 36.484-20.137 0-34.902-16.25-34.902-36.484v-401.094c0-20.137 14.746-36.484 34.902-36.484 20.156-0 34.902 16.348 34.902 36.484zM657.363 132.699v401.094c0 20.137-17.754 36.484-37.891 36.484s-37.891-16.25-37.891-36.484v-401.094c0-20.137 17.754-36.484 37.891-36.484s37.891 16.348 37.891 36.484zM985.762 714.535h-181.855v74.492c0 60.313-49.16 105.977-108.965 105.977l-365.488-0c-60.215 0-109.766-45.664-109.766-105.977v-74.473h-181.855c-20.254-0.020-36.504-14.766-36.504-34.902s16.25-34.902 36.484-34.902h948.047c20.137 0 36.484 14.746 36.484 34.902s-16.348 34.883-36.582 34.883zM728.145 714.535h-437.676v74.492c0 20.137 18.945 36.191 38.984 36.191h365.508c19.941 0 33.203-15.762 33.203-36.191l0-74.492z"  horiz-adv-x="1024" />

    
    <glyph glyph-name="bofang" unicode="&#58945;" d="M394.752 676.864l367.616-211.968c61.952-35.84 61.952-125.44 0-160.768l-367.616-211.968c-61.952-35.84-139.264 8.704-139.264 80.384v424.448c0 70.656 77.312 115.712 139.264 79.872z"  horiz-adv-x="1024" />

    
    <glyph glyph-name="xiangxiapaixu" unicode="&#58944;" d="M603.694 326.426v252.134h-183.91v-252.134h-133.852l225.807-391.107 225.807 391.107h-133.852z"  horiz-adv-x="1024" />

    
    <glyph glyph-name="xiangxiapaixu1" unicode="&#58937;" d="M420.307 313.576v-252.134h183.91v252.134h133.852l-225.807 391.107-225.807-391.107h133.852z"  horiz-adv-x="1024" />

    
    <glyph glyph-name="yinliang" unicode="&#58947;" d="M481.2 769.5c50.4 39.2 89.6 18.2 89.6-44.8v-686c0-60.2-39.2-78.4-84-39.2l-201.6 165.1h-110.6c-63 0-110.6 50.4-110.6 110.6v225.5c0 60.2 50.4 110.6 110.6 110.6h105l201.6 158.2zM687 203.8c-12.6 0-21 5.6-26.6 12.6-18.2 18.2-18.2 39.2 0 54.6 65.8 65.8 65.8 165.2 0 231-18.2 18.2-18.2 39.2 0 54.6 18.2 18.2 39.2 18.2 57.4 0 102.2-92.4 102.2-242.2 0-336-15.4-14-18.2-16.8-30.8-16.8zM797.6 140.8c-18.2 18.2-18.2 39.2 0 54.6 105 105 105 270.2 0 375.2-18.2 18.2-18.2 39.2 0 54.6 18.2 18.2 39.2 18.2 57.4 0 65.8-65.8 105-149.8 105-236.6s-39.2-176.4-105-236.6c-5.6-5.6-18.2-12.6-26.6-12.6-12.6-8.4-23.8-1.4-30.8 1.4z"  horiz-adv-x="1024" />

    
    <glyph glyph-name="zanting" unicode="&#58946;" d="M362.667 42.667c-35.346 0-64 28.654-64 64v533.333c0 35.346 28.654 64 64 64s64-28.654 64-64v-533.333c0-35.346-28.654-64-64-64M661.333 42.667c-35.346 0-64 28.654-64 64v533.333c0 35.346 28.654 64 64 64s64-28.654 64-64v-533.333c0-35.346-28.654-64-64-64z"  horiz-adv-x="1024" />

    
    <glyph glyph-name="yulan" unicode="&#58951;" d="M1013.472 761.44c-0.091 74.279-60.281 134.469-134.551 134.56l-733.833 0c-74.279-0.091-134.469-60.281-134.56-134.551l-0-753.193c0.091-74.279 60.281-134.469 134.551-134.56l625.929-0c20.324 0 36.8 16.476 36.8 36.8s-16.476 36.8-36.8 36.8l-625.92 0c-33.67 0.036-60.956 27.322-60.992 60.989l-0 753.155c0 33.632 27.36 60.992 60.992 60.992h733.824c33.632 0 60.992-27.36 60.992-60.992v-642.112c0.604-19.852 16.841-35.715 36.784-35.715 19.943 0 36.18 15.863 36.783 35.659l0.001 642.167zM738.816 215.456c39.584 49.495 63.521 113.006 63.521 182.107 0 0.283-0 0.566-0.001 0.849 0.001 0.196 0.001 0.48 0.001 0.764 0 81.211-33.030 154.707-86.389 207.788-53.111 53.384-126.611 86.414-207.826 86.414-0.279 0-0.558-0-0.837-0.001-0.196 0.001-0.48 0.001-0.764 0.001-81.211 0-154.707-33.030-207.788-86.389-53.384-53.111-86.414-126.611-86.414-207.826 0-0.279 0-0.558 0.001-0.837-0-78.773 30.688-152.853 86.4-208.565 53.098-53.371 126.599-86.401 207.814-86.401 0.279 0 0.558 0 0.837 0.001 0.183-0.001 0.452-0.001 0.72-0.001 67.4 0 129.485 22.761 178.986 61.016l197.339-198.519c6.652-6.672 15.852-10.8 26.016-10.8s19.364 4.128 26.015 10.799c6.657 6.66 10.774 15.858 10.774 26.017 0 10.159-4.117 19.357-10.773 26.016l-197.632 197.568zM285.856 398.368c0 122.112 99.328 221.472 221.44 221.472s221.472-99.36 221.472-221.472c0-122.112-99.36-221.472-221.472-221.472s-221.44 99.36-221.44 221.472z"  horiz-adv-x="1024" />

    
    <glyph glyph-name="zuixiaohua1" unicode="&#58962;" d="M917.60779605 278.23239399H102.15067762c-56.29715911 0-101.92238933-45.63454407-101.92238933-101.93170318s45.62523022-101.93170318 101.92238933-101.93170318h815.45711843c56.29715911 0 101.93170318 45.63454407 101.93170318 101.93170318s-45.63454407 101.93170318-101.93170318 101.93170318z"  horiz-adv-x="1024" />

    


  </font>
</defs>
</svg>
